<svg width="30" height="30" viewBox="0 0 30 30" fill="none" xmlns="http://www.w3.org/2000/svg">
<g clip-path="url(#clip0_3518_11482)">
<path d="M4.72174 4.72168L4.59967 4.83887V5.9668V7.08984H3.72076C2.78815 7.08984 2.64654 7.11914 2.55377 7.31934C2.51471 7.40234 2.50006 9.89258 2.50006 16.25C2.50006 25.6543 2.49029 25.2832 2.71979 25.3711C2.82721 25.4102 27.1729 25.4102 27.2803 25.3711C27.5098 25.2832 27.5001 25.6543 27.5001 16.25C27.5001 9.89258 27.4854 7.40234 27.4463 7.31934C27.3536 7.11914 27.212 7.08984 26.2794 7.08984H25.4005V5.9668V4.83887L25.2784 4.72168C25.1319 4.57031 25.0049 4.56543 23.6866 4.69727C21.9922 4.86816 20.6934 5.10254 19.2725 5.49805C18.0323 5.84473 17.1583 6.15234 15.6495 6.78223L15.0049 7.0459L14.087 6.66992C11.2696 5.5127 8.99908 4.94629 6.0694 4.67285C4.95611 4.57031 4.86334 4.5752 4.72174 4.72168ZM7.13873 5.625C9.26764 5.89844 11.4356 6.48438 13.6085 7.37305L14.5362 7.75391L14.5508 16.0596L14.5606 24.3652L13.794 24.0479C11.421 23.0762 9.08697 22.4854 6.57233 22.2266C6.05475 22.1729 5.58111 22.1289 5.5274 22.1289C5.42975 22.1289 5.42975 22.1289 5.42975 13.7988V5.46387L5.90826 5.49805C6.16705 5.51758 6.72369 5.57617 7.13873 5.625ZM24.5704 13.7939V22.1143L23.9258 22.1729C21.2061 22.417 18.6573 23.0371 16.2061 24.0479L15.4395 24.3652L15.4493 16.0596L15.4639 7.75391L16.3917 7.37305C18.5792 6.47949 20.7471 5.89355 22.8614 5.62988C23.9063 5.50293 23.96 5.49316 24.2921 5.48828L24.5704 5.47852V13.7939ZM4.59967 15.2734C4.59967 20.1904 4.61432 22.6562 4.6485 22.7148C4.73639 22.876 4.85358 22.9053 5.7276 22.9834C7.47565 23.1396 8.79889 23.3545 10.1661 23.7109C10.8301 23.8818 12.129 24.292 12.5831 24.4678L12.8272 24.5654L8.08111 24.5703H3.33014V16.2451V7.91992H3.9649H4.59967V15.2734ZM26.67 16.2451V24.5703H21.9239C19.3165 24.5703 17.1924 24.5605 17.2022 24.5508C17.251 24.502 18.711 24.0234 19.3458 23.8477C20.9864 23.3887 22.3292 23.1494 24.2481 22.9834C25.1563 22.9004 25.2686 22.876 25.3516 22.7148C25.3858 22.6562 25.4005 20.1904 25.4005 15.2734V7.91992H26.0352H26.67V16.2451Z" fill="white"/>
</g>
<defs>
<clipPath id="clip0_3518_11482">
<rect width="25" height="25" fill="white" transform="translate(2.5 2.5)"/>
</clipPath>
</defs>
</svg>
