<svg width="17" height="17" viewBox="0 0 17 17" fill="none" xmlns="http://www.w3.org/2000/svg">
<path d="M8.40217 2.2873C8.34851 2.29401 8.18083 2.31748 8.03328 2.3376C6.48058 2.54217 5.02178 3.49123 4.16662 4.85277C2.97611 6.74418 3.07001 9.23923 4.39131 11.0099C4.60259 11.2916 8.29821 15.6009 8.53967 15.8491C8.66375 15.9765 8.70734 16 8.81801 16C8.90185 16 8.97898 15.9732 9.02593 15.9329C9.09971 15.8659 12.8289 11.5398 13.1307 11.1709C13.9724 10.138 14.4151 8.67247 14.2944 7.33776C14.2239 6.5765 14.0797 6.04999 13.7679 5.39605C12.9865 3.76622 11.4908 2.64613 9.69664 2.34766C9.40488 2.29736 8.58662 2.26047 8.40217 2.2873ZM9.81066 3.06868C11.085 3.35038 12.1883 4.11499 12.8859 5.20489C13.1508 5.62074 13.3956 6.22102 13.5197 6.75759C13.6069 7.13319 13.6404 8.01518 13.5868 8.40754C13.4694 9.23923 13.1407 10.0273 12.6511 10.6645C12.3862 11.0099 8.8549 15.1113 8.82136 15.1113C8.77777 15.1113 5.02178 10.7282 4.83734 10.4599C4.50869 9.97701 4.23705 9.33313 4.10291 8.70601C4.01571 8.30023 4.01907 7.2338 4.10626 6.82802C4.47515 5.12776 5.6489 3.78969 7.26531 3.22965C7.55372 3.12904 7.91255 3.0452 8.26803 2.99155C8.52625 2.95466 9.51555 3.00161 9.81066 3.06868Z" fill="#7F7F7F"/>
<path d="M8.51962 5.38261C7.30899 5.55365 6.427 6.55301 6.427 7.76699C6.427 8.70264 6.92333 9.50078 7.76507 9.91327C8.13732 10.0977 8.39889 10.1581 8.82144 10.1581C9.24399 10.1581 9.50557 10.0977 9.87781 9.91327C10.7196 9.50078 11.2159 8.70264 11.2125 7.76699C11.2125 7.34445 11.1522 7.08622 10.9711 6.71062C10.733 6.23106 10.3574 5.85211 9.87111 5.6073C9.50557 5.42621 8.92205 5.32896 8.51962 5.38261ZM9.24064 6.10698C9.99519 6.30484 10.5318 6.99232 10.5318 7.76699C10.5318 8.71605 9.76044 9.47731 8.80467 9.47731C7.87909 9.47731 7.11113 8.69928 7.11113 7.76699C7.11113 7.00238 7.64434 6.31155 8.38883 6.11034C8.63029 6.04662 8.99583 6.04327 9.24064 6.10698Z" fill="#7F7F7F"/>
</svg>
