<svg width="17" height="17" viewBox="0 0 17 17" fill="none" xmlns="http://www.w3.org/2000/svg">
<path d="M5.17104 3.03673C5.08426 3.0766 5.00687 3.15869 4.97404 3.24546C4.95996 3.28299 4.94824 3.45185 4.94824 3.6254V3.93732L4.26342 3.9467C3.59032 3.95374 3.57156 3.95608 3.39801 4.01706C2.91019 4.18826 2.57013 4.52598 2.39892 5.00911L2.33325 5.19673V9.47687V13.757L2.39892 13.9446C2.57013 14.4278 2.90785 14.7631 3.39801 14.9367L3.57625 15H8.32544H13.0746L13.2623 14.9343C13.7454 14.7631 14.0808 14.4254 14.2543 13.9352L14.3176 13.757V9.47687V5.19673L14.2543 5.01849C14.0808 4.52833 13.7454 4.19061 13.2623 4.0194C13.077 3.95608 13.0699 3.95374 12.3898 3.9467L11.705 3.93732L11.698 3.59022C11.6909 3.21028 11.6792 3.1751 11.5291 3.06488C11.4376 2.99686 11.2172 2.99686 11.1257 3.06488C10.9756 3.1751 10.9639 3.21028 10.9568 3.59256L10.9498 3.94201H8.32544H5.70107L5.69404 3.59256C5.687 3.21263 5.67527 3.1751 5.52987 3.06722C5.45013 3.00859 5.26485 2.99217 5.17104 3.03673ZM4.95293 4.94813C4.95996 5.22488 4.98107 5.27882 5.12179 5.38201C5.21325 5.45002 5.43371 5.45002 5.52518 5.38201C5.66589 5.27882 5.687 5.22488 5.69404 4.94813L5.70342 4.6925H8.32544H10.9475L10.9568 4.94813C10.9639 5.22488 10.985 5.27882 11.1257 5.38201C11.2172 5.45002 11.4376 5.45002 11.5291 5.38201C11.6698 5.27882 11.6909 5.22488 11.698 4.94813L11.7073 4.69015L12.3429 4.69719L12.9808 4.70423L13.1145 4.76989C13.2834 4.85198 13.4194 4.988 13.5015 5.15686C13.5671 5.29055 13.5671 5.29289 13.5742 5.83465L13.5812 6.3811H8.32778H3.07201V5.88156C3.07201 5.511 3.0814 5.35152 3.10485 5.26709C3.17755 5.03022 3.38159 4.8168 3.61846 4.73471C3.724 4.69954 3.82719 4.69484 4.34316 4.6925H4.94355L4.95293 4.94813ZM13.5742 10.3962L13.5671 13.6632L13.5038 13.7922C13.4217 13.9587 13.2763 14.1041 13.1122 14.1862L12.9808 14.2495H8.32544H3.67006L3.54107 14.1862C3.37456 14.1041 3.22915 13.9587 3.14706 13.7945L3.08374 13.6632L3.07671 10.3962L3.07201 7.13159H8.32544H13.5789L13.5742 10.3962Z" fill="#7F7F7F"/>
</svg>
