<svg width="30" height="30" viewBox="0 0 30 30" fill="none" xmlns="http://www.w3.org/2000/svg">
<path d="M3.95496 4.14849C3.32214 4.36529 2.73621 4.85161 2.46667 5.37896C2.15613 5.98247 2.16785 5.69536 2.16785 14.0626C2.16785 22.6348 2.15027 22.1954 2.53699 22.8458C2.78308 23.2559 3.1991 23.6251 3.67957 23.8594L4.07214 24.0528L13.5643 24.0704C22.9276 24.0821 23.0624 24.0821 23.4432 23.9649C24.1757 23.7422 24.8143 23.127 25.0721 22.3829C25.1366 22.2071 25.7753 20.1856 26.496 17.9004L27.8026 13.7403V13.1543C27.8026 12.5977 27.7909 12.545 27.5858 12.1114C27.1171 11.127 26.2323 10.6055 25.0428 10.6055H24.6678V9.65044C24.6678 8.60747 24.5975 8.2149 24.3339 7.72271C24.1464 7.377 23.7421 6.96099 23.4022 6.76177C22.8046 6.41021 22.9569 6.42193 18.369 6.38677C14.3729 6.35747 14.1385 6.35161 13.9452 6.24615C13.8339 6.18755 13.371 5.7774 12.9198 5.33208C12.4686 4.89263 11.9823 4.4649 11.8358 4.38286C11.2499 4.04302 11.2323 4.04302 7.59363 4.04302C4.57605 4.04888 4.21863 4.05474 3.95496 4.14849ZM11.2499 5.12115C11.3612 5.17974 11.8241 5.5899 12.2753 6.02935C13.1132 6.84966 13.3241 7.01372 13.7753 7.1895C14.0096 7.28325 14.4139 7.29497 18.2518 7.32427L22.4706 7.35357L22.8046 7.51763C22.9921 7.61138 23.2323 7.79302 23.3495 7.92779C23.66 8.29107 23.7303 8.60161 23.7303 9.67974V10.6055H15.4803C9.7616 10.6055 7.11902 10.6231 6.87878 10.67C6.69128 10.7051 6.3866 10.7989 6.21082 10.8868C5.81824 11.0684 5.22644 11.6485 5.05066 12.0118C4.98621 12.1583 4.54675 13.5001 4.07214 15.0001C3.60339 16.5001 3.1991 17.7891 3.1698 17.8711C3.13464 17.959 3.11707 15.7149 3.12292 12.0704L3.13464 6.1231L3.31042 5.80669C3.49207 5.47857 3.82605 5.19146 4.17761 5.05669C4.31824 5.00396 5.24402 4.99224 7.70496 4.9981C10.8632 5.00982 11.0565 5.01568 11.2499 5.12115ZM25.9452 11.7129C26.5604 11.9883 26.9413 12.6387 26.8768 13.295C26.83 13.7579 24.1874 22.1602 23.9999 22.4415C23.8241 22.711 23.5135 22.9571 23.2206 23.0626C23.0389 23.127 21.3163 23.1387 13.6815 23.1387C4.44128 23.1446 4.36511 23.1387 4.10144 23.0215C3.52722 22.7637 3.16394 22.2422 3.12292 21.6211C3.09949 21.2579 3.15808 21.0469 4.47058 16.8575C5.37878 13.9747 5.89441 12.3985 5.99988 12.2461C6.18738 11.9649 6.53308 11.7247 6.90222 11.6251C7.11902 11.5665 9.09949 11.5547 16.4061 11.5606L25.6346 11.5723L25.9452 11.7129Z" fill="white"/>
</svg>
