<svg width="30" height="26" viewBox="0 0 30 26" fill="none" xmlns="http://www.w3.org/2000/svg">
<g clip-path="url(#clip0_3518_11473)">
<path d="M6.76001 25.443C6.76659 25.4477 6.77537 25.4453 6.78196 25.45C6.83378 25.4808 6.89172 25.4979 6.95098 25.5C6.98362 25.4999 7.0161 25.4952 7.04757 25.4859L14.9998 23.1688L22.952 25.4859C22.9834 25.4952 23.0159 25.4999 23.0485 25.5C23.1077 25.4981 23.1655 25.4807 23.2168 25.4492C23.2242 25.4453 23.2322 25.4469 23.2388 25.4422L29.8242 21.1453C29.8922 21.1007 29.9447 21.0336 29.9738 20.9542C30.0028 20.8748 30.0068 20.7875 29.9851 20.7055L26.3383 7.0336C26.3234 6.97666 26.2965 6.92408 26.2598 6.87986C26.223 6.83564 26.1773 6.80093 26.1261 6.77834C26.0749 6.75576 26.0196 6.74591 25.9643 6.74953C25.9091 6.75314 25.8553 6.77014 25.8071 6.79922L22.1763 8.97422C22.0968 9.02782 22.0397 9.11199 22.0166 9.20933C21.9936 9.30667 22.0065 9.40974 22.0526 9.49723C22.0988 9.58471 22.1746 9.64992 22.2645 9.67938C22.3544 9.70883 22.4515 9.70027 22.5356 9.65547L25.7617 7.72188L29.2059 20.6328L23.3412 24.4602L21.9481 12.5609C21.936 12.4581 21.8862 12.3645 21.8096 12.3008C21.7329 12.2372 21.6357 12.2086 21.5394 12.2215C21.443 12.2343 21.3554 12.2875 21.2958 12.3693C21.2362 12.4512 21.2094 12.5549 21.2215 12.6578L22.6168 24.5789L15.3656 22.4656V20.3328C15.3656 20.2292 15.3271 20.1299 15.2585 20.0566C15.1899 19.9833 15.0968 19.9422 14.9998 19.9422C14.9027 19.9422 14.8097 19.9833 14.7411 20.0566C14.6725 20.1299 14.6339 20.2292 14.6339 20.3328V22.4656L7.38196 24.5789L8.77732 12.6578C8.78328 12.6069 8.77978 12.5552 8.76703 12.5057C8.75428 12.4562 8.73252 12.4099 8.703 12.3693C8.67347 12.3288 8.63677 12.2949 8.59497 12.2695C8.55317 12.2442 8.5071 12.2278 8.4594 12.2215C8.41169 12.2151 8.36327 12.2189 8.31692 12.2325C8.27056 12.2461 8.22717 12.2693 8.18922 12.3008C8.15128 12.3324 8.11951 12.3716 8.09575 12.4162C8.07199 12.4608 8.0567 12.51 8.05074 12.5609L6.6583 24.4602L0.793665 20.6336L4.23781 7.72344L7.46391 9.65703C7.54806 9.70183 7.64512 9.71039 7.73502 9.68094C7.82491 9.65149 7.90077 9.58628 7.94691 9.49879C7.99305 9.41131 8.00593 9.30824 7.9829 9.21089C7.95987 9.11355 7.90269 9.02938 7.82318 8.97578L4.19171 6.8C4.14361 6.7706 4.08984 6.75334 4.03453 6.74957C3.97922 6.74579 3.92383 6.7556 3.87261 6.77822C3.8214 6.80085 3.77572 6.8357 3.73907 6.8801C3.70243 6.92451 3.6758 6.97728 3.66123 7.03438L0.0143967 20.7063C-0.00766024 20.7883 -0.00385144 20.8758 0.0252364 20.9552C0.0543243 21.0347 0.107078 21.1018 0.175372 21.1461L6.76001 25.443Z" fill="white"/>
<path d="M14.752 18.7563C14.8191 18.8224 14.9071 18.8594 14.9985 18.8598C15.0899 18.8603 15.1782 18.8242 15.2459 18.7586C15.4895 18.5219 21.2195 12.9078 21.2195 7.14062C21.2195 3.41641 18.4881 0.5 15 0.5C11.512 0.5 8.78052 3.41641 8.78052 7.14062C8.78052 12.8078 14.5083 18.5156 14.752 18.7563V18.7563ZM15 1.28125C18.1281 1.28125 20.4878 3.8 20.4878 7.14062C20.4878 11.9039 16.1027 16.7789 15.0022 17.9273C13.9039 16.7656 9.51222 11.8266 9.51222 7.14062C9.51222 3.8 11.872 1.28125 15 1.28125Z" fill="white"/>
<path d="M18.2929 7.14062C18.2929 5.20234 16.8156 3.625 15.0002 3.625C13.1848 3.625 11.7075 5.20234 11.7075 7.14062C11.7075 9.07891 13.1848 10.6562 15.0002 10.6562C16.8156 10.6562 18.2929 9.07891 18.2929 7.14062ZM15.0002 9.875C13.588 9.875 12.4392 8.64844 12.4392 7.14062C12.4392 5.63281 13.588 4.40625 15.0002 4.40625C16.4124 4.40625 17.5612 5.63281 17.5612 7.14062C17.5612 8.64844 16.4124 9.875 15.0002 9.875Z" fill="white"/>
</g>
<defs>
<clipPath id="clip0_3518_11473">
<rect width="30" height="25" fill="white" transform="translate(0 0.5)"/>
</clipPath>
</defs>
</svg>
