<svg width="30" height="30" viewBox="0 0 30 30" fill="none" xmlns="http://www.w3.org/2000/svg">
<path d="M14.2618 5.10706C12.6321 5.34768 11.3305 6.46331 10.8329 8.05471C10.6524 8.64534 10.6524 9.75549 10.8329 10.3516C11.3907 12.1399 12.9711 13.3047 14.8469 13.3102C15.5688 13.3102 16.0118 13.2117 16.668 12.8946C17.543 12.4735 18.1336 11.8828 18.5821 10.9969C18.9157 10.3352 19.0086 9.85393 18.9813 9.02268C18.9594 8.48674 18.9266 8.26799 18.8063 7.91799C18.593 7.29456 18.2704 6.77502 17.7946 6.29924C17.1219 5.62659 16.329 5.23831 15.3665 5.10706C14.8852 5.04143 14.7321 5.04143 14.2618 5.10706ZM15.875 6.14065C16.8594 6.47424 17.6415 7.25628 17.9586 8.22971C18.1282 8.74924 18.1446 9.61877 17.986 10.0781C17.5868 11.2594 16.7774 12.025 15.6125 12.3258C14.5571 12.5938 13.4415 12.3039 12.6157 11.5328C12.1836 11.1336 11.9375 10.7508 11.7352 10.1766C11.5493 9.64612 11.5383 8.81487 11.7133 8.27346C12.0579 7.19065 13.0805 6.25549 14.1524 6.03674C14.5954 5.94924 15.4649 5.99846 15.875 6.14065Z" fill="white"/>
<path d="M22.7656 7.97266C21.6609 8.22422 20.6984 9.10469 20.3539 10.1875C20.2171 10.6031 20.1898 11.4891 20.2992 11.8828C20.4468 12.4188 20.7421 12.9219 21.1414 13.332C21.5898 13.7805 21.8906 13.9719 22.4429 14.1578C23.2687 14.4367 24.1 14.3711 24.9312 13.9664C27.1078 12.8891 27.3101 9.84844 25.2976 8.47031C24.5757 7.97813 23.5914 7.78672 22.7656 7.97266ZM24.1382 8.90781C24.5539 9.0336 24.8382 9.21406 25.1664 9.5586C26.2546 10.707 25.8828 12.5281 24.4226 13.2063C23.4711 13.6547 22.2406 13.3484 21.6062 12.5117C21.2617 12.0633 21.1578 11.7242 21.1523 11.0898C21.1523 10.5867 21.1687 10.5156 21.3273 10.1711C21.6117 9.56953 22.1531 9.09922 22.7929 8.89688C23.1046 8.79844 23.7882 8.80391 24.1382 8.90781Z" fill="white"/>
<path d="M5.87272 8.19688C5.05241 8.37188 4.30866 8.875 3.84928 9.55859C2.98522 10.8492 3.16022 12.5227 4.26491 13.6109C4.83366 14.1742 5.76334 14.5625 6.55084 14.5625C7.91256 14.5625 9.22506 13.5891 9.64615 12.2656C9.82116 11.7297 9.81022 10.8984 9.62428 10.3625C9.4274 9.79922 9.18131 9.41094 8.75475 9.01172C7.97819 8.27344 6.90631 7.97266 5.87272 8.19688ZM7.50787 9.24141C8.16412 9.55312 8.56881 10.018 8.77662 10.7016C9.10475 11.7734 8.56881 12.9383 7.52428 13.4305C6.81881 13.7586 5.87272 13.6875 5.24381 13.25C4.91022 13.0258 4.56022 12.6266 4.41803 12.3039C3.84928 11.057 4.47272 9.61328 5.79069 9.14844C6.04772 9.06094 6.21725 9.03906 6.63287 9.05547C7.08131 9.06641 7.20162 9.09375 7.50787 9.24141Z" fill="white"/>
<path d="M14.3438 13.8899C12.6703 14.0539 11.068 14.7485 9.89766 15.8203L9.52578 16.1649L8.99531 15.9133C8.35 15.607 7.90703 15.4703 7.26172 15.3828C4.69687 15.0219 2.13203 16.6078 1.28984 19.0742C1.06562 19.7305 1 20.2828 1 21.4531C1 22.5305 1 22.536 1.15313 22.8258C1.2625 23.0391 1.37734 23.1649 1.57422 23.2852L1.83672 23.4492L4.60938 23.4656L7.3875 23.482L7.42031 23.7008C7.46953 24.018 7.62812 24.3024 7.89062 24.5375C8.35547 24.9586 7.77031 24.9258 15 24.9258C22.2297 24.9258 21.6445 24.9586 22.1094 24.5375C22.4211 24.2586 22.5578 23.9633 22.5906 23.5203L22.618 23.1539L25.3578 23.1375C27.3047 23.1266 28.1414 23.0992 28.2398 23.0555C28.4805 22.9516 28.7922 22.6453 28.8961 22.4102C28.9836 22.2242 29 22.0383 29 21.1195C29 19.9547 28.9344 19.4024 28.7102 18.7461C28.1414 17.0781 26.818 15.7875 25.1445 15.257C23.6297 14.7813 21.8633 14.9945 20.5562 15.8039L20.2883 15.9735L19.9492 15.6836C18.4016 14.3711 16.2961 13.693 14.3438 13.8899ZM16.1266 14.8633C18.8609 15.3336 21.0047 17.3953 21.568 20.0969C21.6609 20.5563 21.6883 20.9063 21.7047 22.0164C21.732 23.4875 21.7047 23.7281 21.4695 23.9086C21.3273 24.0235 21.3 24.0235 15 24.0235C8.73828 24.0235 8.66719 24.0235 8.53047 23.9141C8.29531 23.7281 8.27344 23.5531 8.29531 22.0547C8.31172 20.8844 8.33359 20.5672 8.43203 20.0969C8.99531 17.4172 11.1227 15.35 13.8242 14.8688C14.4148 14.7649 15.5305 14.7594 16.1266 14.8633ZM24.6195 16.0445C26.2492 16.4602 27.5398 17.7563 27.9609 19.3969C28.0539 19.7633 28.0703 20.0039 28.0703 20.961C28.0703 21.7649 28.0539 22.1039 28.0047 22.1531C27.9555 22.2024 27.2773 22.2188 25.2758 22.2188H22.618L22.5852 21.2727C22.5359 19.9055 22.3281 19.0688 21.7484 17.9477C21.6062 17.6688 21.3602 17.2641 21.2016 17.0453L20.9117 16.6461L21.0922 16.5313C22.0547 15.9406 23.4492 15.7492 24.6195 16.0445ZM7.68281 16.3891C8.14766 16.5039 8.875 16.8156 8.875 16.8922C8.875 16.9086 8.77109 17.0672 8.65078 17.2531C8.32812 17.7235 7.86328 18.7188 7.69922 19.293C7.48594 20.0258 7.39844 20.7258 7.39844 21.6828V22.5469H4.72422C2.44375 22.5469 2.04453 22.536 1.98438 22.4649C1.93516 22.4047 1.92422 22.0656 1.94063 21.1414C1.9625 20.0258 1.97891 19.8508 2.08828 19.5117C2.62422 17.882 3.91484 16.7008 5.56641 16.3399C6.12969 16.2141 7.08672 16.236 7.68281 16.3891Z" fill="white"/>
</svg>
