<svg width="30" height="30" viewBox="0 0 30 30" fill="none" xmlns="http://www.w3.org/2000/svg">
<path d="M14.0351 2.03551C12.1105 2.21832 10.6785 2.62457 9.05855 3.44723C7.13901 4.42731 5.41753 5.97106 4.15815 7.83981C3.63003 8.632 2.98003 9.96754 2.66519 10.9121C2.41636 11.6738 2.21323 12.5422 2.09136 13.4004C2.00503 13.9996 2.00503 16.0004 2.09136 16.5996C2.30464 18.0976 2.70073 19.4078 3.32026 20.6621C4.01597 22.0839 4.70151 23.0386 5.82886 24.1711C6.95112 25.2882 7.92105 25.9839 9.28706 26.6543C10.2417 27.1214 10.8562 27.35 11.8261 27.5937C14.3652 28.2336 16.9144 28.1117 19.3925 27.2332C20.1492 26.964 21.4593 26.3089 22.1347 25.857C23.6531 24.8464 25.0445 23.4195 26.0398 21.8554C26.4054 21.2816 26.9945 20.0629 27.2332 19.3875C28.4265 16.0257 28.2183 12.4203 26.6492 9.26676C26.0195 7.99723 25.3136 6.99684 24.3234 5.97614C23.2265 4.83864 22.15 4.05661 20.7128 3.34567C19.2097 2.60426 17.8082 2.20309 16.1425 2.05075C15.6246 2.00504 14.4515 1.99489 14.0351 2.03551ZM16.4371 3.17301C21.0429 3.73668 24.9074 6.94098 26.3445 11.3793C26.9792 13.3547 27.0808 15.5535 26.6238 17.605C26.2531 19.2859 25.4203 21.0226 24.3132 22.4242C23.9375 22.9015 22.9015 23.9375 22.4242 24.3132C20.6722 25.6945 18.6054 26.5578 16.3812 26.8371C15.2539 26.9793 13.5984 26.8929 12.4 26.6238C11.2066 26.3597 9.7898 25.7859 8.75894 25.141C7.71284 24.491 6.38745 23.3179 5.68667 22.4242C4.30034 20.6621 3.44722 18.6105 3.16284 16.3812C3.08159 15.7464 3.08159 14.2535 3.16284 13.6035C3.37104 11.9175 4.00073 10.1351 4.88433 8.71325C5.75269 7.31676 7.19995 5.84918 8.56089 4.97575C9.39878 4.44254 10.4042 3.97028 11.3945 3.65036C12.2882 3.3609 13.1464 3.1984 14.3398 3.09684C14.68 3.06637 15.9597 3.11207 16.4371 3.17301Z" fill="white"/>
<path d="M14.7612 6.39761C14.426 6.56519 14.4413 6.38238 14.4413 10.9273C14.4413 13.6847 14.4565 15.0914 14.4971 15.1878C14.553 15.3453 20.4131 21.241 20.6772 21.4085C21.0936 21.6675 21.6167 21.2562 21.4745 20.7789C21.4542 20.7179 20.1135 19.3367 18.4987 17.7168L15.5585 14.7714V10.7902C15.5585 6.38238 15.5737 6.56011 15.2284 6.39761C15.0202 6.29605 14.9643 6.29605 14.7612 6.39761Z" fill="white"/>
</svg>
