<svg width="30" height="30" viewBox="0 0 30 30" fill="none" xmlns="http://www.w3.org/2000/svg">
<g clip-path="url(#clip0_3518_11507)">
<path d="M3.41707 0.607656C3.13954 0.732267 2.90164 0.998478 2.82235 1.28168C2.77704 1.42895 2.76571 5.55238 2.77704 15.085L2.79403 28.6788L2.91297 28.9053C2.97528 29.0299 3.13954 29.2055 3.26981 29.3018L3.51336 29.4717L14.8755 29.4887C22.8335 29.5 26.3055 29.4887 26.4528 29.4434C26.736 29.3641 27.0022 29.1262 27.1268 28.8487C27.2288 28.6334 27.2345 28.0954 27.2345 15C27.2345 1.87641 27.2288 1.3723 27.1268 1.15141C27.0022 0.879532 26.821 0.703947 26.5434 0.585001C26.3565 0.511368 25.0991 0.50004 14.9888 0.50004C4.10243 0.50004 3.63231 0.505705 3.41707 0.607656ZM26.2602 1.5309C26.3112 1.58188 26.3282 2.25023 26.3282 4.19301V6.78715H15.0284H3.7286V4.21567C3.7286 2.79965 3.74559 1.60453 3.76258 1.55356C3.79657 1.4686 4.83875 1.46293 14.9944 1.46293C23.6264 1.46293 26.2093 1.47992 26.2602 1.5309ZM26.2602 18.0983L26.2432 28.5655L15.0341 28.5825C6.79852 28.5881 3.80789 28.5768 3.75125 28.5315C3.68329 28.4748 3.67196 26.7473 3.67196 18.053V7.63676H14.9718H26.2716L26.2602 18.0983Z" fill="white"/>
<path d="M14.3941 2.22187C13.3746 2.55605 12.8195 3.67188 13.1934 4.65742C13.3463 5.0709 13.7371 5.4957 14.1392 5.69395C14.4168 5.82988 14.5301 5.85254 14.9435 5.85254C15.34 5.85254 15.476 5.82988 15.7082 5.7166C17.1639 4.99727 17.1639 3.02051 15.7139 2.3125C15.374 2.14824 14.7453 2.10859 14.3941 2.22187ZM15.3967 3.23574C15.6855 3.38867 15.9064 3.74551 15.9064 4.0627C15.9064 4.7877 15.0908 5.25781 14.4621 4.90098C13.8164 4.53281 13.8277 3.56426 14.4904 3.23008C14.8076 3.07148 15.0851 3.07148 15.3967 3.23574Z" fill="white"/>
<path d="M18.6703 2.53909C18.1266 2.70335 17.8773 3.07718 17.8434 3.77386C17.8094 4.37991 17.9 4.7764 18.1209 5.04827C18.4721 5.47308 18.3305 5.45608 21.4004 5.45608C22.9127 5.45608 24.2154 5.43909 24.3004 5.41077C24.5156 5.35413 24.8555 5.04261 24.9461 4.82171C25.0424 4.60081 25.0537 3.41702 24.9631 3.17913C24.8895 2.98089 24.6572 2.73167 24.4307 2.60706C24.2778 2.5221 23.9549 2.51077 21.542 2.49944C20.0467 2.49378 18.7553 2.51077 18.6703 2.53909ZM24.0852 3.47933C24.2211 3.5303 24.2211 4.54983 24.0852 4.60081C24.0342 4.6178 22.8674 4.63479 21.4854 4.63479C19.2764 4.63479 18.9648 4.62347 18.8856 4.54417C18.8176 4.48186 18.7949 4.34593 18.7949 4.04007C18.7949 3.73421 18.8176 3.59827 18.8856 3.53597C18.9648 3.45667 19.2764 3.44534 21.4854 3.44534C22.8674 3.44534 24.0342 3.46233 24.0852 3.47933Z" fill="white"/>
<path d="M14.4054 10.5878C11.7716 10.769 9.38705 12.2813 8.039 14.6319C6.3851 17.5206 6.78724 21.3495 9.00756 23.819C10.265 25.2124 11.8339 26.0846 13.6974 26.4188C14.3318 26.5321 15.6685 26.5321 16.3029 26.4188C19.622 25.8241 22.1595 23.3772 22.8165 20.143C23.5359 16.6313 21.8253 13.0743 18.6421 11.443C17.7189 10.9729 16.6597 10.6614 15.7648 10.6048C15.5496 10.5878 15.2777 10.5708 15.1701 10.5651C15.0624 10.5538 14.7169 10.5651 14.4054 10.5878ZM15.7025 11.511C17.6962 11.6526 19.724 12.8591 20.8624 14.5753C21.5081 15.5552 21.831 16.3878 21.9953 17.5206C22.4427 20.5792 20.8964 23.4962 18.0871 24.9009C16.2009 25.8411 13.7994 25.8411 11.9132 24.9009C9.78353 23.836 8.35053 21.8932 8.00502 19.5993C7.76713 17.9907 8.09564 16.2971 8.91693 14.9264C9.91947 13.2612 11.6017 12.0491 13.4822 11.63C13.9296 11.5337 14.8529 11.4374 15.1134 11.4657C15.1927 11.477 15.4533 11.494 15.7025 11.511Z" fill="white"/>
<path d="M14.1674 13.8332C12.3209 14.1844 10.9729 15.3965 10.4008 17.209C10.2875 17.5828 10.2705 17.747 10.2705 18.54C10.2705 19.333 10.2875 19.4972 10.4008 19.8711C10.6047 20.5111 10.8879 21.0549 11.29 21.5476C11.9131 22.3179 12.6891 22.839 13.6689 23.1336C14.1221 23.2695 14.2693 23.2865 15 23.2865C15.7307 23.2865 15.8779 23.2695 16.3311 23.1336C17.934 22.6465 19.0895 21.491 19.5992 19.8711C19.7125 19.4972 19.7295 19.333 19.7295 18.54C19.7295 17.747 19.7125 17.5828 19.5992 17.209C19.0725 15.5381 17.8434 14.3429 16.2178 13.9238C15.6344 13.7709 14.7111 13.7312 14.1674 13.8332ZM15.9969 14.8017C16.9654 15.0566 17.934 15.7873 18.3361 16.5802L18.4438 16.7898L18.1549 16.8918C17.7471 17.039 17.2203 17.5771 17.073 18.0019C16.9258 18.4097 16.9258 18.9138 17.0674 19.299C17.209 19.6955 17.6281 20.1486 18.002 20.3299C18.1549 20.4035 18.2852 20.4828 18.2852 20.5111C18.2852 20.6074 17.9453 21.0379 17.6508 21.3267C16.416 22.5219 14.5865 22.7484 13.0742 21.8988C12.6098 21.6326 11.8395 20.834 11.5846 20.3412C10.4008 18.0699 11.7092 15.3115 14.2354 14.7508C14.6998 14.6488 15.4758 14.6715 15.9969 14.8017ZM18.8742 17.9283C18.9422 18.3474 18.9025 18.8742 18.7666 19.5199C18.7383 19.6388 18.7326 19.6445 18.523 19.5595C17.7584 19.248 17.7074 18.2738 18.4268 17.8263C18.7043 17.6508 18.8289 17.6847 18.8742 17.9283Z" fill="white"/>
</g>
<defs>
<clipPath id="clip0_3518_11507">
<rect width="29" height="29" fill="white" transform="translate(0.5 0.5)"/>
</clipPath>
</defs>
</svg>
