<svg width="30" height="30" viewBox="0 0 30 30" fill="none" xmlns="http://www.w3.org/2000/svg">
<g clip-path="url(#clip0_3518_11490)">
<path d="M9.41016 3.63574C6.40957 4.80644 3.63574 5.8875 3.25078 6.03516C2.6707 6.26191 2.53887 6.33047 2.47559 6.45703C2.40703 6.58887 2.39648 7.68574 2.39648 15C2.39648 22.3195 2.40703 23.4111 2.47559 23.543C2.53359 23.659 2.64961 23.7275 2.96074 23.8488C3.1875 23.9385 5.9666 25.0195 9.14121 26.2535C12.3158 27.4875 14.9525 28.5 15 28.5C15.0475 28.5 17.6842 27.4875 20.8588 26.2535C24.0334 25.0195 26.8125 23.9385 27.0393 23.8488C27.3504 23.7275 27.4664 23.659 27.5244 23.543C27.593 23.4111 27.6035 22.3195 27.6035 15C27.6035 7.68047 27.593 6.58887 27.5244 6.45703C27.4664 6.34101 27.3504 6.27246 27.0393 6.15117C26.8125 6.06152 24.0281 4.98047 20.8535 3.74648C17.6789 2.5125 15.0369 1.5 14.9736 1.50527C14.9156 1.50527 12.4107 2.46504 9.41016 3.63574ZM20.4158 4.5375C23.3689 5.68184 25.8 6.6416 25.8211 6.65742C25.8422 6.67851 24.7822 7.11094 23.4639 7.62246L21.0697 8.55586L15.6381 6.44121C12.648 5.28105 10.2117 4.31602 10.2223 4.30547C10.2592 4.26855 14.9156 2.45449 14.9842 2.45449C15.0158 2.44922 17.4627 3.38789 20.4158 4.5375ZM14.4727 6.94746C19.2029 8.79316 19.8094 9.04102 19.6934 9.08848C19.224 9.29414 15.0686 10.8867 15.0053 10.8867C14.9578 10.8867 12.4951 9.94277 9.52617 8.79316C5.86113 7.36406 4.15781 6.67851 4.20527 6.64688C4.24219 6.62051 5.29688 6.20391 6.54141 5.71348C8.13398 5.09121 8.85117 4.83281 8.96191 4.84863C9.05156 4.85918 11.5301 5.80313 14.4727 6.94746ZM9.0041 9.55254L14.5254 11.6988V19.5404V27.3873L14.0666 27.2027C13.8082 27.1078 11.2875 26.127 8.46094 25.0248L3.31934 23.0262L3.30352 15.1846C3.29297 7.72793 3.29824 7.34297 3.38262 7.37461C3.43535 7.39043 5.96133 8.37129 9.0041 9.55254ZM26.6965 15.1898L26.6807 23.0262L21.5391 25.0248C18.7125 26.127 16.1918 27.1078 15.9387 27.2027L15.4746 27.3873V19.5404V11.6988L21.0539 9.52617C24.1178 8.33438 26.6438 7.35879 26.6701 7.35352C26.6912 7.35352 26.7018 10.8814 26.6965 15.1898Z" fill="white"/>
</g>
<defs>
<clipPath id="clip0_3518_11490">
<rect width="27" height="27" fill="white" transform="translate(1.5 1.5)"/>
</clipPath>
</defs>
</svg>
