<svg width="17" height="17" viewBox="0 0 17 17" fill="none" xmlns="http://www.w3.org/2000/svg">
<path d="M8.58627 2.21257C7.65757 2.30011 6.95166 2.49771 6.18066 2.8854C5.16435 3.39315 4.22313 4.25608 3.60483 5.24657C3.15676 5.96192 2.83134 6.88488 2.69866 7.81034C2.65611 8.10548 2.65611 9.09097 2.69866 9.38612C2.8038 10.124 2.99905 10.7693 3.30445 11.3871C3.64739 12.0875 3.98533 12.5577 4.54104 13.1155C5.09426 13.6657 5.57238 14.0084 6.24574 14.3386C6.71635 14.5687 7.01924 14.6812 7.49736 14.8013C8.74898 15.1165 10.0056 15.0564 11.2272 14.6237C11.6027 14.4911 12.2485 14.166 12.5789 13.9459C13.9807 13.0104 14.962 11.5897 15.32 9.97391C15.4026 9.59872 15.4451 9.24605 15.4626 8.81083C15.5002 7.7453 15.2799 6.7298 14.8043 5.77433C14.4939 5.14902 14.1459 4.65627 13.6578 4.15353C13.1221 3.59825 12.5814 3.20556 11.878 2.85788C11.1371 2.4927 10.4462 2.29511 9.62511 2.22007C9.36978 2.19756 8.79153 2.19256 8.58627 2.21257ZM9.95053 3.06799C11.5226 3.33312 12.8493 4.18854 13.7329 5.5117C14.181 6.17953 14.4739 6.94491 14.6115 7.78532C14.6716 8.16801 14.6716 9.02844 14.6115 9.41113C14.3412 11.082 13.425 12.4676 12.0032 13.3631C11.3949 13.7458 10.6589 14.0159 9.87543 14.1435C9.48993 14.2035 8.63132 14.2035 8.24833 14.141C6.60371 13.8733 5.24946 13.0004 4.3508 11.6247C3.93025 10.9819 3.64739 10.2315 3.51221 9.41113C3.45214 9.02844 3.45214 8.16801 3.51221 7.78532C3.71498 6.54221 4.24066 5.50419 5.10427 4.64627C6.06051 3.6933 7.26206 3.13302 8.6113 3.01046C8.88165 2.98545 9.65765 3.02046 9.95053 3.06799Z" fill="#7F7F7F"/>
<path d="M8.66138 6.67972V8.76075L9.9205 10.0189L11.1771 11.2745L11.46 10.9919L11.7404 10.7117L10.6014 9.57365L9.46241 8.43559V6.51714V4.59619H9.06189H8.66138V6.67972Z" fill="#7F7F7F"/>
</svg>
