<svg width="20" height="21" viewBox="0 0 20 21" fill="none" xmlns="http://www.w3.org/2000/svg">
<g clip-path="url(#clip0_3518_4875)">
<path d="M15.8632 0.570332C15.789 0.605488 15.6913 0.687519 15.6483 0.746113C15.5507 0.875019 15.5468 1.00002 15.5976 2.41018L15.6327 3.32424L15.4413 3.17971C14.078 2.14455 12.4882 1.51955 10.8007 1.35549C9.85147 1.26174 8.57022 1.35549 7.71475 1.57424C5.53115 2.13674 3.67569 3.44143 2.41006 5.31252C1.34756 6.87893 0.792873 8.82424 0.874904 10.7149C0.906154 11.4688 1.04287 12.3867 1.15615 12.6172C1.35147 13.0078 1.9335 13.0235 2.13272 12.6446C2.20694 12.4961 2.19912 12.3438 2.07022 11.6524C1.95694 11.0313 1.94131 9.87502 2.04287 9.22658C2.30069 7.55861 3.04287 6.0508 4.19522 4.83986C4.30459 4.72658 4.5624 4.49221 4.76553 4.31643C7.58975 1.92189 11.6718 1.78127 14.6483 3.97658L14.9413 4.19143L14.746 4.19924C14.6405 4.20705 14.078 4.22658 13.4999 4.25002C12.3554 4.29299 12.3046 4.30471 12.1327 4.53518C12.0116 4.69924 12.0233 4.98439 12.1601 5.16018C12.3397 5.39455 12.3515 5.39455 14.289 5.32814C15.2499 5.29299 16.1171 5.25783 16.2226 5.24611C16.4687 5.22268 16.6249 5.12502 16.7187 4.93361C16.7929 4.77736 16.7929 4.75783 16.7226 2.8633C16.6796 1.80861 16.6288 0.906269 16.6093 0.851582C16.5663 0.746113 16.4335 0.6133 16.3007 0.542988C16.1796 0.480488 16.0155 0.4883 15.8632 0.570332Z" fill="#001529"/>
<path d="M18.0586 8.15233C17.9062 8.24608 17.8125 8.41796 17.8125 8.59374C17.8125 8.66405 17.8477 8.89843 17.8906 9.11327C18.1484 10.4258 18.0625 11.8164 17.6328 13.1133C16.957 15.1758 15.4961 16.8359 13.5352 17.7851C11.3164 18.8594 8.72266 18.8437 6.51172 17.7422C5.88672 17.4297 4.89844 16.75 5.0625 16.75C5.10156 16.7461 5.66797 16.6992 6.3125 16.6367C7.60937 16.5156 7.67969 16.5 7.82031 16.2422C7.96875 15.9687 7.83984 15.6055 7.54687 15.4883C7.41016 15.4336 7.25781 15.4414 5.48828 15.6016C3.375 15.793 3.36719 15.793 3.22656 16.0664L3.14844 16.2187L3.31641 18.1328C3.43359 19.4453 3.50391 20.0898 3.54297 20.1797C3.62109 20.3398 3.78906 20.4648 3.98047 20.4883C4.25391 20.5273 4.52734 20.3086 4.55859 20.0234C4.57422 19.8711 4.44531 18.1328 4.39062 17.8086L4.37109 17.6758L4.55859 17.8203C7.19141 19.8203 10.6992 20.2461 13.6992 18.9336C16.0664 17.8945 17.8672 15.918 18.6758 13.4687C19.1758 11.9414 19.2656 10.4101 18.9453 8.74218C18.8867 8.4453 18.832 8.32811 18.6953 8.19921C18.5547 8.06639 18.2344 8.04296 18.0586 8.15233Z" fill="#001529"/>
</g>
<defs>
<clipPath id="clip0_3518_4875">
<rect width="20" height="20" fill="white" transform="translate(0 0.5)"/>
</clipPath>
</defs>
</svg>
